<?xml version="1.0" standalone="no"?>
<!DOCTYPE svg PUBLIC "-//W3C//DTD SVG 20010904//EN"
 "http://www.w3.org/TR/2001/REC-SVG-20010904/DTD/svg10.dtd">
<svg version="1.0" xmlns="http://www.w3.org/2000/svg"
 width="981.000000pt" height="982.000000pt" viewBox="0 0 981.000000 982.000000"
 preserveAspectRatio="xMidYMid meet">

<g transform="translate(0.000000,982.000000) scale(0.100000,-0.100000)"
fill="#212529" stroke="none">
<path d="M5311 9748 c-20 -100 -86 -288 -149 -427 -327 -717 -999 -1350 -1907
-1797 -164 -81 -173 -87 -253 -170 -353 -365 -385 -725 -93 -1045 217 -238
625 -442 1058 -529 494 -98 1233 -121 1758 -54 373 48 704 151 938 293 347
211 529 504 562 906 20 246 -101 469 -359 664 -152 115 -345 218 -554 295
l-87 32 -2 54 c-11 247 -54 560 -108 777 -132 536 -353 876 -666 1022 -118 56
-122 55 -138 -21z"/>
<path d="M7526 6326 c-80 -137 -246 -325 -406 -458 -421 -353 -980 -573 -1665
-655 -216 -26 -856 -26 -1065 0 -287 36 -519 84 -728 152 -570 184 -989 493
-1237 910 -9 14 -42 -15 -220 -197 -239 -242 -356 -377 -457 -527 -158 -236
-233 -435 -245 -648 -10 -182 22 -321 111 -489 92 -174 246 -338 531 -570 702
-572 1478 -881 2370 -944 1007 -71 2162 248 3065 846 227 150 377 270 540 434
206 205 304 359 357 559 37 137 37 323 0 463 -76 290 -232 535 -526 828 -134
134 -324 297 -388 333 -6 4 -21 -10 -37 -37z"/>
<path d="M854 4418 c-407 -422 -685 -891 -793 -1333 -38 -158 -46 -228 -45
-420 0 -158 4 -208 23 -295 60 -282 190 -546 385 -779 92 -110 294 -303 416
-397 455 -352 1103 -657 1845 -869 1344 -384 2831 -426 4090 -114 919 228
1690 619 2335 1184 157 138 405 396 456 475 371 575 317 1244 -160 1970 -191
290 -551 679 -609 657 -7 -3 -50 -76 -96 -163 -179 -341 -348 -572 -592 -810
-609 -591 -1477 -936 -2619 -1039 -272 -24 -980 -40 -1199 -27 -1298 81 -2346
580 -2975 1419 -116 155 -207 301 -298 480 -40 79 -76 143 -79 143 -3 0 -41
-37 -85 -82z"/>
</g>
</svg>
